<svg id="convertSVG" class="iconSVG" viewBox="0 0 220 220" xmlns="http://www.w3.org/2000/svg"><path d="M84.03 132.206c-.17-12.627-.333-24.55 7.556-31.573 5.756-5.128 21.622-7.058 32.603-7.249v15.998l26.126-22.488-26.126-20.357v16.016c-9.288.129-30.207 1.429-39.809 9.994-11.581 10.311-11.367 25.979-11.182 39.806l.043 3.402 10.836-.091-.047-3.458zM161.061 113.569l-10.836.084.04 3.463c.173 12.627.335 24.55-7.546 31.572-5.764 5.14-21.632 7.054-32.605 7.257v-15.996l-26.129 22.485 26.129 20.353v-16.006c9.288-.142 30.199-1.441 39.807-9.993 11.577-10.318 11.364-25.989 11.182-39.813l-.042-3.406z"/><path d="M173.837 0H26.931v234.288h180.426V32.499L173.837 0zm17.925 218.683H42.53V15.6h123.269v24.75h25.958v178.333h.005z"/></svg>