<svg id="mergeSVG" class="iconSVG" xmlns="http://www.w3.org/2000/svg" viewBox="0 0 512 512"><path d="M444.875 109.792L338.208 3.125c-2-2-4.708-3.125-7.542-3.125h-224C83.135 0 64 19.135 64 42.667v426.667C64 492.865 83.135 512 106.667 512h298.667C428.865 512 448 492.865 448 469.333v-352c0-2.833-1.125-5.541-3.125-7.541zM341.333 36.417l70.25 70.25h-48.917c-11.76 0-21.333-9.573-21.333-21.333V36.417zm85.334 432.916c0 11.76-9.573 21.333-21.333 21.333H106.667c-11.76 0-21.333-9.573-21.333-21.333v-192h341.333v192zm0-213.333H85.333V42.667c0-11.76 9.573-21.333 21.333-21.333H320v64C320 108.865 339.135 128 362.667 128h64v128z"/><path d="M217.604 360.531c4.729 3.542 11.396 2.604 14.927-2.135L256 327.115l23.469 31.281c2.094 2.802 5.292 4.271 8.542 4.271 2.229 0 4.469-.698 6.385-2.135 4.719-3.531 5.677-10.219 2.135-14.927l-32-42.667c-4.021-5.375-13.042-5.375-17.063 0l-32 42.667c-3.541 4.708-2.583 11.395 2.136 14.926zM294.396 172.802c-4.698-3.521-11.375-2.583-14.927 2.135L256 206.219l-23.469-31.281a10.631 10.631 0 0 0-14.927-2.135c-4.719 3.531-5.677 10.219-2.135 14.927l32 42.667c2.01 2.688 5.177 4.271 8.531 4.271s6.521-1.583 8.531-4.271l32-42.667c3.542-4.709 2.584-11.397-2.135-14.928z"/></svg>